<mxfile host="Electron" agent="Mozilla/5.0 (X11; Linux x86_64) AppleWebKit/537.36 (KHTML, like Gecko) draw.io/24.7.8 Chrome/128.0.6613.36 Electron/32.0.1 Safari/537.36" version="24.7.8">
  <diagram name="Page-1" id="1xVkC0A4zu-yb7dTjXCJ">
    <mxGraphModel dx="2625" dy="1573" grid="1" gridSize="10" guides="1" tooltips="1" connect="1" arrows="1" fold="1" page="1" pageScale="1" pageWidth="850" pageHeight="1100" math="0" shadow="0">
      <root>
        <mxCell id="0" />
        <mxCell id="1" parent="0" />
        <mxCell id="bKH6nKr-G-KITB9uF0FW-1" value="Ticket&lt;span style=&quot;white-space: pre;&quot;&gt;&#x9;&lt;/span&gt;|&lt;span style=&quot;white-space: pre;&quot;&gt;&#x9;&lt;/span&gt;1: Created&lt;div&gt;&lt;hr&gt;id: 123&lt;/div&gt;&lt;div&gt;user_id: 456&lt;/div&gt;&lt;div&gt;route: {ROUTE-1}&lt;/div&gt;&lt;div&gt;passengers: []&lt;/div&gt;&lt;div&gt;price: 100&lt;/div&gt;&lt;div&gt;status: CREATED&lt;/div&gt;" style="rounded=1;whiteSpace=wrap;html=1;" vertex="1" parent="1">
          <mxGeometry x="80" y="170" width="160" height="130" as="geometry" />
        </mxCell>
        <mxCell id="bKH6nKr-G-KITB9uF0FW-10" style="edgeStyle=orthogonalEdgeStyle;rounded=0;orthogonalLoop=1;jettySize=auto;html=1;exitX=0;exitY=0;exitDx=0;exitDy=0;exitPerimeter=0;entryX=0;entryY=0.5;entryDx=0;entryDy=0;endArrow=none;endFill=0;" edge="1" parent="1" source="bKH6nKr-G-KITB9uF0FW-5" target="bKH6nKr-G-KITB9uF0FW-9">
          <mxGeometry relative="1" as="geometry" />
        </mxCell>
        <mxCell id="bKH6nKr-G-KITB9uF0FW-5" value="" style="shape=corner;whiteSpace=wrap;html=1;direction=west;rotation=-45;" vertex="1" parent="1">
          <mxGeometry x="340" y="210" width="49.27" height="50" as="geometry" />
        </mxCell>
        <mxCell id="bKH6nKr-G-KITB9uF0FW-25" style="edgeStyle=orthogonalEdgeStyle;rounded=0;orthogonalLoop=1;jettySize=auto;html=1;exitX=0;exitY=0;exitDx=0;exitDy=0;exitPerimeter=0;entryX=0;entryY=0.5;entryDx=0;entryDy=0;endArrow=none;endFill=0;" edge="1" parent="1" source="bKH6nKr-G-KITB9uF0FW-7" target="bKH6nKr-G-KITB9uF0FW-24">
          <mxGeometry relative="1" as="geometry" />
        </mxCell>
        <mxCell id="bKH6nKr-G-KITB9uF0FW-7" value="" style="shape=corner;whiteSpace=wrap;html=1;direction=west;rotation=-45;" vertex="1" parent="1">
          <mxGeometry x="720" y="210" width="49.27" height="50" as="geometry" />
        </mxCell>
        <mxCell id="bKH6nKr-G-KITB9uF0FW-8" style="edgeStyle=orthogonalEdgeStyle;rounded=0;orthogonalLoop=1;jettySize=auto;html=1;exitX=1;exitY=0.5;exitDx=0;exitDy=0;entryX=0;entryY=0;entryDx=20;entryDy=20;entryPerimeter=0;endArrow=none;endFill=0;" edge="1" parent="1" source="bKH6nKr-G-KITB9uF0FW-1" target="bKH6nKr-G-KITB9uF0FW-5">
          <mxGeometry relative="1" as="geometry" />
        </mxCell>
        <mxCell id="bKH6nKr-G-KITB9uF0FW-9" value="Ticket&lt;span style=&quot;white-space: pre;&quot;&gt;&#x9;&lt;/span&gt;|&lt;span style=&quot;white-space: pre;&quot;&gt;&#x9;&lt;/span&gt;2: Ready to Pay&lt;div&gt;&lt;hr&gt;id: 123&lt;/div&gt;&lt;div&gt;user_id: 456&lt;/div&gt;&lt;div&gt;route: {ROUTE-1}&lt;/div&gt;&lt;div&gt;passengers: [{PASS-1}, {PASS-2}]&lt;/div&gt;&lt;div&gt;price: 50&lt;/div&gt;&lt;div&gt;status: READY&lt;/div&gt;" style="rounded=1;whiteSpace=wrap;html=1;" vertex="1" parent="1">
          <mxGeometry x="480" y="170" width="190" height="130" as="geometry" />
        </mxCell>
        <mxCell id="bKH6nKr-G-KITB9uF0FW-11" value="E1: Create" style="text;html=1;align=center;verticalAlign=middle;whiteSpace=wrap;rounded=0;" vertex="1" parent="1">
          <mxGeometry x="160" y="40" width="80" height="30" as="geometry" />
        </mxCell>
        <mxCell id="bKH6nKr-G-KITB9uF0FW-19" style="edgeStyle=orthogonalEdgeStyle;rounded=0;orthogonalLoop=1;jettySize=auto;html=1;exitX=0;exitY=0;exitDx=0;exitDy=0;exitPerimeter=0;entryX=0.5;entryY=0;entryDx=0;entryDy=0;endArrow=none;endFill=0;" edge="1" parent="1" source="bKH6nKr-G-KITB9uF0FW-14" target="bKH6nKr-G-KITB9uF0FW-1">
          <mxGeometry relative="1" as="geometry" />
        </mxCell>
        <mxCell id="bKH6nKr-G-KITB9uF0FW-14" value="" style="shape=corner;whiteSpace=wrap;html=1;direction=west;rotation=45;" vertex="1" parent="1">
          <mxGeometry x="135.36999999999995" y="70" width="49.27" height="50" as="geometry" />
        </mxCell>
        <mxCell id="bKH6nKr-G-KITB9uF0FW-21" value="" style="endArrow=none;html=1;rounded=0;exitX=0;exitY=0;exitDx=20;exitDy=20;exitPerimeter=0;" edge="1" parent="1" source="bKH6nKr-G-KITB9uF0FW-14">
          <mxGeometry width="50" height="50" relative="1" as="geometry">
            <mxPoint x="180" y="60" as="sourcePoint" />
            <mxPoint x="160" y="40" as="targetPoint" />
          </mxGeometry>
        </mxCell>
        <mxCell id="bKH6nKr-G-KITB9uF0FW-23" style="edgeStyle=orthogonalEdgeStyle;rounded=0;orthogonalLoop=1;jettySize=auto;html=1;exitX=1;exitY=0.5;exitDx=0;exitDy=0;entryX=0;entryY=0;entryDx=20;entryDy=20;entryPerimeter=0;endArrow=none;endFill=0;" edge="1" parent="1" source="bKH6nKr-G-KITB9uF0FW-9" target="bKH6nKr-G-KITB9uF0FW-7">
          <mxGeometry relative="1" as="geometry" />
        </mxCell>
        <mxCell id="bKH6nKr-G-KITB9uF0FW-24" value="Ticket&lt;span style=&quot;white-space: pre;&quot;&gt;&#x9;&lt;/span&gt;|&lt;span style=&quot;white-space: pre;&quot;&gt;&#x9;&lt;/span&gt;3: Paid&lt;div&gt;&lt;hr&gt;id: 123&lt;/div&gt;&lt;div&gt;user_id: 456&lt;/div&gt;&lt;div&gt;route: {ROUTE-1}&lt;/div&gt;&lt;div&gt;passengers: [{PASS-1}, {PASS-2}]&lt;/div&gt;&lt;div&gt;price: 50&lt;/div&gt;&lt;div&gt;status: PAID&lt;/div&gt;" style="rounded=1;whiteSpace=wrap;html=1;" vertex="1" parent="1">
          <mxGeometry x="830" y="170" width="190" height="130" as="geometry" />
        </mxCell>
        <mxCell id="bKH6nKr-G-KITB9uF0FW-33" style="edgeStyle=orthogonalEdgeStyle;rounded=0;orthogonalLoop=1;jettySize=auto;html=1;exitX=0;exitY=0;exitDx=0;exitDy=0;exitPerimeter=0;entryX=0.5;entryY=0;entryDx=0;entryDy=0;endArrow=none;endFill=0;" edge="1" parent="1" source="bKH6nKr-G-KITB9uF0FW-27" target="bKH6nKr-G-KITB9uF0FW-32">
          <mxGeometry relative="1" as="geometry" />
        </mxCell>
        <mxCell id="bKH6nKr-G-KITB9uF0FW-27" value="" style="shape=corner;whiteSpace=wrap;html=1;direction=west;rotation=45;" vertex="1" parent="1">
          <mxGeometry x="550" y="340" width="49.27" height="50" as="geometry" />
        </mxCell>
        <mxCell id="bKH6nKr-G-KITB9uF0FW-31" style="edgeStyle=orthogonalEdgeStyle;rounded=0;orthogonalLoop=1;jettySize=auto;html=1;exitX=0.5;exitY=1;exitDx=0;exitDy=0;entryX=0;entryY=0;entryDx=20;entryDy=20;entryPerimeter=0;endArrow=none;endFill=0;" edge="1" parent="1" source="bKH6nKr-G-KITB9uF0FW-9" target="bKH6nKr-G-KITB9uF0FW-27">
          <mxGeometry relative="1" as="geometry" />
        </mxCell>
        <mxCell id="bKH6nKr-G-KITB9uF0FW-32" value="Ticket&lt;span style=&quot;white-space: pre;&quot;&gt;&#x9;&lt;/span&gt;|&lt;span style=&quot;white-space: pre;&quot;&gt;&#x9;&lt;/span&gt;4: Declined&lt;div&gt;&lt;hr&gt;id: 123&lt;/div&gt;&lt;div&gt;user_id: 456&lt;/div&gt;&lt;div&gt;route: {ROUTE-1}&lt;/div&gt;&lt;div&gt;passengers: [{PASS-1}, {PASS-2}]&lt;/div&gt;&lt;div&gt;price: 50&lt;/div&gt;&lt;div&gt;status: DECLINED&lt;/div&gt;" style="rounded=1;whiteSpace=wrap;html=1;" vertex="1" parent="1">
          <mxGeometry x="479.63" y="440" width="190" height="130" as="geometry" />
        </mxCell>
        <mxCell id="bKH6nKr-G-KITB9uF0FW-34" value="M1: Create" style="text;html=1;align=center;verticalAlign=middle;whiteSpace=wrap;rounded=0;" vertex="1" parent="1">
          <mxGeometry x="160" y="130" width="80" height="30" as="geometry" />
        </mxCell>
        <mxCell id="bKH6nKr-G-KITB9uF0FW-35" value="E2: Fill with data" style="text;html=1;align=center;verticalAlign=middle;whiteSpace=wrap;rounded=0;" vertex="1" parent="1">
          <mxGeometry x="240" y="200" width="100" height="30" as="geometry" />
        </mxCell>
        <mxCell id="bKH6nKr-G-KITB9uF0FW-36" value="M2: Prepare" style="text;html=1;align=center;verticalAlign=middle;whiteSpace=wrap;rounded=0;" vertex="1" parent="1">
          <mxGeometry x="400" y="200" width="80" height="30" as="geometry" />
        </mxCell>
        <mxCell id="bKH6nKr-G-KITB9uF0FW-38" value="E4: Cancel" style="text;html=1;align=center;verticalAlign=middle;whiteSpace=wrap;rounded=0;" vertex="1" parent="1">
          <mxGeometry x="490" y="310" width="80" height="30" as="geometry" />
        </mxCell>
        <mxCell id="bKH6nKr-G-KITB9uF0FW-39" value="M4: Decline" style="text;html=1;align=center;verticalAlign=middle;whiteSpace=wrap;rounded=0;" vertex="1" parent="1">
          <mxGeometry x="490" y="400" width="80" height="30" as="geometry" />
        </mxCell>
        <mxCell id="bKH6nKr-G-KITB9uF0FW-40" value="E3: Pay" style="text;html=1;align=center;verticalAlign=middle;whiteSpace=wrap;rounded=0;" vertex="1" parent="1">
          <mxGeometry x="670" y="200" width="60" height="30" as="geometry" />
        </mxCell>
        <mxCell id="bKH6nKr-G-KITB9uF0FW-41" value="M3: Pay" style="text;html=1;align=center;verticalAlign=middle;whiteSpace=wrap;rounded=0;" vertex="1" parent="1">
          <mxGeometry x="770" y="200" width="60" height="30" as="geometry" />
        </mxCell>
        <mxCell id="bKH6nKr-G-KITB9uF0FW-47" style="edgeStyle=orthogonalEdgeStyle;rounded=0;orthogonalLoop=1;jettySize=auto;html=1;exitX=0;exitY=0;exitDx=0;exitDy=0;exitPerimeter=0;entryX=1;entryY=0.5;entryDx=0;entryDy=0;endArrow=none;endFill=0;" edge="1" parent="1" source="bKH6nKr-G-KITB9uF0FW-43" target="bKH6nKr-G-KITB9uF0FW-32">
          <mxGeometry relative="1" as="geometry" />
        </mxCell>
        <mxCell id="bKH6nKr-G-KITB9uF0FW-43" value="" style="shape=corner;whiteSpace=wrap;html=1;direction=west;rotation=45;" vertex="1" parent="1">
          <mxGeometry x="900.37" y="340" width="49.27" height="50" as="geometry" />
        </mxCell>
        <mxCell id="bKH6nKr-G-KITB9uF0FW-44" value="E5: Fail" style="text;html=1;align=center;verticalAlign=middle;whiteSpace=wrap;rounded=0;" vertex="1" parent="1">
          <mxGeometry x="840" y="310" width="80" height="30" as="geometry" />
        </mxCell>
        <mxCell id="bKH6nKr-G-KITB9uF0FW-45" value="M5: Decline" style="text;html=1;align=center;verticalAlign=middle;whiteSpace=wrap;rounded=0;" vertex="1" parent="1">
          <mxGeometry x="840" y="400" width="80" height="30" as="geometry" />
        </mxCell>
        <mxCell id="bKH6nKr-G-KITB9uF0FW-46" style="edgeStyle=orthogonalEdgeStyle;rounded=0;orthogonalLoop=1;jettySize=auto;html=1;exitX=0.5;exitY=1;exitDx=0;exitDy=0;entryX=0;entryY=0;entryDx=20;entryDy=20;entryPerimeter=0;endArrow=none;endFill=0;" edge="1" parent="1" source="bKH6nKr-G-KITB9uF0FW-24" target="bKH6nKr-G-KITB9uF0FW-43">
          <mxGeometry relative="1" as="geometry" />
        </mxCell>
      </root>
    </mxGraphModel>
  </diagram>
</mxfile>
